<mxfile host="app.diagrams.net" modified="2024-02-29T20:47:59.599Z" agent="Mozilla/5.0 (Windows NT 10.0; Win64; x64; rv:123.0) Gecko/20100101 Firefox/123.0" etag="QraW_wM9A6f_WzPHo0kT" version="24.0.0" type="github">
  <diagram name="Page-1" id="13e1069c-82ec-6db2-03f1-153e76fe0fe0">
    <mxGraphModel dx="2150" dy="634" grid="1" gridSize="10" guides="1" tooltips="1" connect="1" arrows="1" fold="1" page="1" pageScale="1" pageWidth="1100" pageHeight="850" background="none" math="0" shadow="0">
      <root>
        <mxCell id="0" />
        <mxCell id="1" parent="0" />
        <mxCell id="2ybR_Enmwmyk68wynfg2-30" value=":Database" style="shape=umlLifeline;perimeter=lifelinePerimeter;whiteSpace=wrap;html=1;container=1;collapsible=0;recursiveResize=0;outlineConnect=0;rounded=1;shadow=0;comic=0;labelBackgroundColor=none;strokeWidth=1;fontFamily=Verdana;fontSize=12;align=center;" vertex="1" parent="1">
          <mxGeometry x="600" y="80" width="90" height="2000" as="geometry" />
        </mxCell>
        <mxCell id="2ybR_Enmwmyk68wynfg2-35" value="" style="html=1;points=[[0,0,0,0,5],[0,1,0,0,-5],[1,0,0,0,5],[1,1,0,0,-5]];perimeter=orthogonalPerimeter;outlineConnect=0;targetShapes=umlLifeline;portConstraint=eastwest;newEdgeStyle={&quot;curved&quot;:0,&quot;rounded&quot;:0};" vertex="1" parent="2ybR_Enmwmyk68wynfg2-30">
          <mxGeometry x="40" y="420" width="10" height="50" as="geometry" />
        </mxCell>
        <mxCell id="7baba1c4bc27f4b0-2" value=":ReportService" style="shape=umlLifeline;perimeter=lifelinePerimeter;whiteSpace=wrap;html=1;container=1;collapsible=0;recursiveResize=0;outlineConnect=0;rounded=1;shadow=0;comic=0;labelBackgroundColor=none;strokeWidth=1;fontFamily=Verdana;fontSize=12;align=center;" parent="1" vertex="1">
          <mxGeometry x="160" y="80" width="100" height="1800" as="geometry" />
        </mxCell>
        <mxCell id="aY3UgDq_XDh859U9HPvW-2" value="" style="html=1;points=[[0,0,0,0,5],[0,1,0,0,-5],[1,0,0,0,5],[1,1,0,0,-5]];perimeter=orthogonalPerimeter;outlineConnect=0;targetShapes=umlLifeline;portConstraint=eastwest;newEdgeStyle={&quot;curved&quot;:0,&quot;rounded&quot;:0};" parent="7baba1c4bc27f4b0-2" vertex="1">
          <mxGeometry x="45" y="110" width="10" height="140" as="geometry" />
        </mxCell>
        <mxCell id="7baba1c4bc27f4b0-3" value=":Report" style="shape=umlLifeline;perimeter=lifelinePerimeter;whiteSpace=wrap;html=1;container=1;collapsible=0;recursiveResize=0;outlineConnect=0;rounded=1;shadow=0;comic=0;labelBackgroundColor=none;strokeWidth=1;fontFamily=Verdana;fontSize=12;align=center;" parent="1" vertex="1">
          <mxGeometry x="420" y="80" width="90" height="2000" as="geometry" />
        </mxCell>
        <mxCell id="7baba1c4bc27f4b0-8" value=":ReportsResource" style="shape=umlLifeline;perimeter=lifelinePerimeter;whiteSpace=wrap;html=1;container=1;collapsible=0;recursiveResize=0;outlineConnect=0;rounded=1;shadow=0;comic=0;labelBackgroundColor=none;strokeWidth=1;fontFamily=Verdana;fontSize=12;align=center;" parent="1" vertex="1">
          <mxGeometry x="-220" y="80" width="180" height="1940" as="geometry" />
        </mxCell>
        <mxCell id="7baba1c4bc27f4b0-9" value="" style="html=1;points=[];perimeter=orthogonalPerimeter;rounded=0;shadow=0;comic=0;labelBackgroundColor=none;strokeWidth=1;fontFamily=Verdana;fontSize=12;align=center;" parent="7baba1c4bc27f4b0-8" vertex="1">
          <mxGeometry x="85" y="100" width="10" height="160" as="geometry" />
        </mxCell>
        <mxCell id="aY3UgDq_XDh859U9HPvW-1" value="welcome" style="shape=umlFrame;whiteSpace=wrap;html=1;pointerEvents=0;" parent="7baba1c4bc27f4b0-8" vertex="1">
          <mxGeometry y="90" width="740" height="180" as="geometry" />
        </mxCell>
        <mxCell id="aY3UgDq_XDh859U9HPvW-9" value="get reports" style="shape=umlFrame;whiteSpace=wrap;html=1;pointerEvents=0;width=80;height=25;" parent="7baba1c4bc27f4b0-8" vertex="1">
          <mxGeometry y="280" width="960" height="610" as="geometry" />
        </mxCell>
        <mxCell id="aY3UgDq_XDh859U9HPvW-4" value="WelcomeReport.dto" style="html=1;verticalAlign=bottom;endArrow=open;dashed=1;endSize=8;curved=0;rounded=0;" parent="7baba1c4bc27f4b0-8" edge="1">
          <mxGeometry relative="1" as="geometry">
            <mxPoint x="425" y="240" as="sourcePoint" />
            <mxPoint x="95" y="240" as="targetPoint" />
          </mxGeometry>
        </mxCell>
        <mxCell id="aY3UgDq_XDh859U9HPvW-10" value="" style="html=1;points=[[0,0,0,0,5],[0,1,0,0,-5],[1,0,0,0,5],[1,1,0,0,-5]];perimeter=orthogonalPerimeter;outlineConnect=0;targetShapes=umlLifeline;portConstraint=eastwest;newEdgeStyle={&quot;curved&quot;:0,&quot;rounded&quot;:0};" parent="7baba1c4bc27f4b0-8" vertex="1">
          <mxGeometry x="85" y="340" width="10" height="30" as="geometry" />
        </mxCell>
        <mxCell id="aY3UgDq_XDh859U9HPvW-11" value="" style="html=1;points=[[0,0,0,0,5],[0,1,0,0,-5],[1,0,0,0,5],[1,1,0,0,-5]];perimeter=orthogonalPerimeter;outlineConnect=0;targetShapes=umlLifeline;portConstraint=eastwest;newEdgeStyle={&quot;curved&quot;:0,&quot;rounded&quot;:0};" parent="7baba1c4bc27f4b0-8" vertex="1">
          <mxGeometry x="425" y="340" width="10" height="1600" as="geometry" />
        </mxCell>
        <mxCell id="aY3UgDq_XDh859U9HPvW-14" value="List&amp;lt;Report.dto&amp;gt;" style="html=1;verticalAlign=bottom;endArrow=open;dashed=1;endSize=8;curved=0;rounded=0;" parent="7baba1c4bc27f4b0-8" edge="1">
          <mxGeometry relative="1" as="geometry">
            <mxPoint x="270" y="1010" as="sourcePoint" />
            <mxPoint x="-50" y="1010" as="targetPoint" />
          </mxGeometry>
        </mxCell>
        <mxCell id="2ybR_Enmwmyk68wynfg2-7" value="" style="html=1;points=[[0,0,0,0,5],[0,1,0,0,-5],[1,0,0,0,5],[1,1,0,0,-5]];perimeter=orthogonalPerimeter;outlineConnect=0;targetShapes=umlLifeline;portConstraint=eastwest;newEdgeStyle={&quot;curved&quot;:0,&quot;rounded&quot;:0};" vertex="1" parent="7baba1c4bc27f4b0-8">
          <mxGeometry x="680" y="120" width="10" height="80" as="geometry" />
        </mxCell>
        <mxCell id="2ybR_Enmwmyk68wynfg2-8" value="getWelcome()" style="html=1;verticalAlign=bottom;startArrow=oval;startFill=1;endArrow=block;startSize=8;curved=0;rounded=0;" edge="1" parent="7baba1c4bc27f4b0-8" target="7baba1c4bc27f4b0-3">
          <mxGeometry width="60" relative="1" as="geometry">
            <mxPoint x="440" y="120" as="sourcePoint" />
            <mxPoint x="500" y="120" as="targetPoint" />
          </mxGeometry>
        </mxCell>
        <mxCell id="2ybR_Enmwmyk68wynfg2-9" value="WelcomeReport" style="html=1;verticalAlign=bottom;endArrow=open;dashed=1;endSize=8;curved=0;rounded=0;" edge="1" parent="7baba1c4bc27f4b0-8" target="aY3UgDq_XDh859U9HPvW-2">
          <mxGeometry relative="1" as="geometry">
            <mxPoint x="680" y="200" as="sourcePoint" />
            <mxPoint x="600" y="200" as="targetPoint" />
          </mxGeometry>
        </mxCell>
        <mxCell id="2ybR_Enmwmyk68wynfg2-38" value="up-to-date report available" style="shape=umlFrame;whiteSpace=wrap;html=1;pointerEvents=0;width=120;height=30;" vertex="1" parent="7baba1c4bc27f4b0-8">
          <mxGeometry x="740" y="320" width="210" height="760" as="geometry" />
        </mxCell>
        <mxCell id="2ybR_Enmwmyk68wynfg2-39" value="type:accommodation-confirmation" style="shape=umlFrame;whiteSpace=wrap;html=1;pointerEvents=0;width=240;height=20;" vertex="1" parent="7baba1c4bc27f4b0-8">
          <mxGeometry x="360" y="580" width="580" height="200" as="geometry" />
        </mxCell>
        <mxCell id="2ybR_Enmwmyk68wynfg2-40" value="" style="html=1;points=[[0,0,0,0,5],[0,1,0,0,-5],[1,0,0,0,5],[1,1,0,0,-5]];perimeter=orthogonalPerimeter;outlineConnect=0;targetShapes=umlLifeline;portConstraint=eastwest;newEdgeStyle={&quot;curved&quot;:0,&quot;rounded&quot;:0};" vertex="1" parent="7baba1c4bc27f4b0-8">
          <mxGeometry x="680" y="600" width="10" height="120" as="geometry" />
        </mxCell>
        <mxCell id="2ybR_Enmwmyk68wynfg2-41" value="getReports()" style="html=1;verticalAlign=bottom;startArrow=oval;startFill=1;endArrow=block;startSize=8;curved=0;rounded=0;" edge="1" parent="7baba1c4bc27f4b0-8" target="2ybR_Enmwmyk68wynfg2-40">
          <mxGeometry width="60" relative="1" as="geometry">
            <mxPoint x="440" y="630" as="sourcePoint" />
            <mxPoint x="500" y="630" as="targetPoint" />
          </mxGeometry>
        </mxCell>
        <mxCell id="2ybR_Enmwmyk68wynfg2-42" value="AccommodationConfirmationReport" style="html=1;verticalAlign=bottom;endArrow=open;dashed=1;endSize=8;curved=0;rounded=0;" edge="1" parent="7baba1c4bc27f4b0-8">
          <mxGeometry relative="1" as="geometry">
            <mxPoint x="680" y="710" as="sourcePoint" />
            <mxPoint x="429.5" y="710" as="targetPoint" />
          </mxGeometry>
        </mxCell>
        <mxCell id="2ybR_Enmwmyk68wynfg2-43" value="" style="html=1;points=[[0,0,0,0,5],[0,1,0,0,-5],[1,0,0,0,5],[1,1,0,0,-5]];perimeter=orthogonalPerimeter;outlineConnect=0;targetShapes=umlLifeline;portConstraint=eastwest;newEdgeStyle={&quot;curved&quot;:0,&quot;rounded&quot;:0};" vertex="1" parent="7baba1c4bc27f4b0-8">
          <mxGeometry x="860" y="640" width="10" height="50" as="geometry" />
        </mxCell>
        <mxCell id="2ybR_Enmwmyk68wynfg2-44" value="dispatch" style="html=1;verticalAlign=bottom;startArrow=oval;startFill=1;endArrow=block;startSize=8;curved=0;rounded=0;" edge="1" parent="7baba1c4bc27f4b0-8" target="2ybR_Enmwmyk68wynfg2-43">
          <mxGeometry width="60" relative="1" as="geometry">
            <mxPoint x="690" y="640" as="sourcePoint" />
            <mxPoint x="750" y="640" as="targetPoint" />
          </mxGeometry>
        </mxCell>
        <mxCell id="2ybR_Enmwmyk68wynfg2-45" value="return" style="html=1;verticalAlign=bottom;endArrow=open;dashed=1;endSize=8;curved=0;rounded=0;exitX=0;exitY=1;exitDx=0;exitDy=-5;exitPerimeter=0;" edge="1" parent="7baba1c4bc27f4b0-8" source="2ybR_Enmwmyk68wynfg2-43">
          <mxGeometry relative="1" as="geometry">
            <mxPoint x="820" y="690" as="sourcePoint" />
            <mxPoint x="685" y="685" as="targetPoint" />
          </mxGeometry>
        </mxCell>
        <mxCell id="2ybR_Enmwmyk68wynfg2-46" value="type:accommodation-confirmation" style="shape=umlFrame;whiteSpace=wrap;html=1;pointerEvents=0;width=240;height=20;" vertex="1" parent="7baba1c4bc27f4b0-8">
          <mxGeometry x="360" y="800" width="580" height="200" as="geometry" />
        </mxCell>
        <mxCell id="2ybR_Enmwmyk68wynfg2-47" value="" style="html=1;points=[[0,0,0,0,5],[0,1,0,0,-5],[1,0,0,0,5],[1,1,0,0,-5]];perimeter=orthogonalPerimeter;outlineConnect=0;targetShapes=umlLifeline;portConstraint=eastwest;newEdgeStyle={&quot;curved&quot;:0,&quot;rounded&quot;:0};" vertex="1" parent="7baba1c4bc27f4b0-8">
          <mxGeometry x="680" y="820" width="10" height="120" as="geometry" />
        </mxCell>
        <mxCell id="2ybR_Enmwmyk68wynfg2-48" value="getReports()" style="html=1;verticalAlign=bottom;startArrow=oval;startFill=1;endArrow=block;startSize=8;curved=0;rounded=0;" edge="1" parent="7baba1c4bc27f4b0-8" target="2ybR_Enmwmyk68wynfg2-47">
          <mxGeometry width="60" relative="1" as="geometry">
            <mxPoint x="440" y="850" as="sourcePoint" />
            <mxPoint x="500" y="850" as="targetPoint" />
          </mxGeometry>
        </mxCell>
        <mxCell id="2ybR_Enmwmyk68wynfg2-49" value="AccommodationConfirmationReport" style="html=1;verticalAlign=bottom;endArrow=open;dashed=1;endSize=8;curved=0;rounded=0;" edge="1" parent="7baba1c4bc27f4b0-8">
          <mxGeometry relative="1" as="geometry">
            <mxPoint x="680" y="930" as="sourcePoint" />
            <mxPoint x="429.5" y="930" as="targetPoint" />
          </mxGeometry>
        </mxCell>
        <mxCell id="2ybR_Enmwmyk68wynfg2-50" value="" style="html=1;points=[[0,0,0,0,5],[0,1,0,0,-5],[1,0,0,0,5],[1,1,0,0,-5]];perimeter=orthogonalPerimeter;outlineConnect=0;targetShapes=umlLifeline;portConstraint=eastwest;newEdgeStyle={&quot;curved&quot;:0,&quot;rounded&quot;:0};" vertex="1" parent="7baba1c4bc27f4b0-8">
          <mxGeometry x="860" y="860" width="10" height="50" as="geometry" />
        </mxCell>
        <mxCell id="2ybR_Enmwmyk68wynfg2-51" value="dispatch" style="html=1;verticalAlign=bottom;startArrow=oval;startFill=1;endArrow=block;startSize=8;curved=0;rounded=0;" edge="1" parent="7baba1c4bc27f4b0-8" target="2ybR_Enmwmyk68wynfg2-50">
          <mxGeometry width="60" relative="1" as="geometry">
            <mxPoint x="690" y="860" as="sourcePoint" />
            <mxPoint x="750" y="860" as="targetPoint" />
          </mxGeometry>
        </mxCell>
        <mxCell id="2ybR_Enmwmyk68wynfg2-52" value="return" style="html=1;verticalAlign=bottom;endArrow=open;dashed=1;endSize=8;curved=0;rounded=0;exitX=0;exitY=1;exitDx=0;exitDy=-5;exitPerimeter=0;" edge="1" parent="7baba1c4bc27f4b0-8" source="2ybR_Enmwmyk68wynfg2-50">
          <mxGeometry relative="1" as="geometry">
            <mxPoint x="820" y="910" as="sourcePoint" />
            <mxPoint x="685" y="905" as="targetPoint" />
          </mxGeometry>
        </mxCell>
        <mxCell id="7baba1c4bc27f4b0-40" value="Note" style="shape=note;whiteSpace=wrap;html=1;size=14;verticalAlign=top;align=left;spacingTop=-6;rounded=0;shadow=0;comic=0;labelBackgroundColor=none;strokeWidth=1;fontFamily=Verdana;fontSize=12" parent="1" vertex="1">
          <mxGeometry x="-220" y="30" width="180" height="35" as="geometry" />
        </mxCell>
        <mxCell id="7baba1c4bc27f4b0-41" value="Note" style="shape=note;whiteSpace=wrap;html=1;size=14;verticalAlign=top;align=left;spacingTop=-6;rounded=0;shadow=0;comic=0;labelBackgroundColor=none;strokeWidth=1;fontFamily=Verdana;fontSize=12" parent="1" vertex="1">
          <mxGeometry x="160" y="30" width="100" height="35" as="geometry" />
        </mxCell>
        <mxCell id="7baba1c4bc27f4b0-42" value="Note" style="shape=note;whiteSpace=wrap;html=1;size=14;verticalAlign=top;align=left;spacingTop=-6;rounded=0;shadow=0;comic=0;labelBackgroundColor=none;strokeWidth=1;fontFamily=Verdana;fontSize=12" parent="1" vertex="1">
          <mxGeometry x="420" y="30" width="90" height="35" as="geometry" />
        </mxCell>
        <mxCell id="aY3UgDq_XDh859U9HPvW-3" value="getWelcome()" style="html=1;verticalAlign=bottom;startArrow=oval;startFill=1;endArrow=block;startSize=8;curved=0;rounded=0;entryX=0;entryY=0;entryDx=0;entryDy=5;entryPerimeter=0;" parent="1" target="aY3UgDq_XDh859U9HPvW-2" edge="1">
          <mxGeometry x="-0.2129" width="60" relative="1" as="geometry">
            <mxPoint x="-120" y="195" as="sourcePoint" />
            <mxPoint x="190" y="200" as="targetPoint" />
            <mxPoint as="offset" />
          </mxGeometry>
        </mxCell>
        <mxCell id="aY3UgDq_XDh859U9HPvW-12" value="getReports()" style="html=1;verticalAlign=bottom;startArrow=oval;startFill=1;endArrow=block;startSize=8;curved=0;rounded=0;exitX=1;exitY=0;exitDx=0;exitDy=5;exitPerimeter=0;" parent="1" source="aY3UgDq_XDh859U9HPvW-10" target="7baba1c4bc27f4b0-2" edge="1">
          <mxGeometry width="60" relative="1" as="geometry">
            <mxPoint y="430" as="sourcePoint" />
            <mxPoint x="60" y="430" as="targetPoint" />
          </mxGeometry>
        </mxCell>
        <mxCell id="aY3UgDq_XDh859U9HPvW-16" value="type:accommodation-confirmation" style="shape=umlFrame;whiteSpace=wrap;html=1;pointerEvents=0;width=240;height=20;" parent="1" vertex="1">
          <mxGeometry x="140" y="440" width="580" height="200" as="geometry" />
        </mxCell>
        <mxCell id="aY3UgDq_XDh859U9HPvW-17" value="" style="html=1;points=[[0,0,0,0,5],[0,1,0,0,-5],[1,0,0,0,5],[1,1,0,0,-5]];perimeter=orthogonalPerimeter;outlineConnect=0;targetShapes=umlLifeline;portConstraint=eastwest;newEdgeStyle={&quot;curved&quot;:0,&quot;rounded&quot;:0};" parent="1" vertex="1">
          <mxGeometry x="460" y="460" width="10" height="120" as="geometry" />
        </mxCell>
        <mxCell id="2ybR_Enmwmyk68wynfg2-1" value="getReports()" style="html=1;verticalAlign=bottom;startArrow=oval;startFill=1;endArrow=block;startSize=8;curved=0;rounded=0;" edge="1" parent="1" target="aY3UgDq_XDh859U9HPvW-17">
          <mxGeometry width="60" relative="1" as="geometry">
            <mxPoint x="220" y="490" as="sourcePoint" />
            <mxPoint x="280" y="490" as="targetPoint" />
          </mxGeometry>
        </mxCell>
        <mxCell id="2ybR_Enmwmyk68wynfg2-2" value="AccommodationConfirmationReport" style="html=1;verticalAlign=bottom;endArrow=open;dashed=1;endSize=8;curved=0;rounded=0;" edge="1" parent="1">
          <mxGeometry relative="1" as="geometry">
            <mxPoint x="460" y="570" as="sourcePoint" />
            <mxPoint x="209.5" y="570" as="targetPoint" />
          </mxGeometry>
        </mxCell>
        <mxCell id="2ybR_Enmwmyk68wynfg2-36" value="dispatch" style="html=1;verticalAlign=bottom;startArrow=oval;startFill=1;endArrow=block;startSize=8;curved=0;rounded=0;" edge="1" parent="1" target="2ybR_Enmwmyk68wynfg2-35">
          <mxGeometry width="60" relative="1" as="geometry">
            <mxPoint x="470" y="500" as="sourcePoint" />
            <mxPoint x="530" y="500" as="targetPoint" />
          </mxGeometry>
        </mxCell>
        <mxCell id="2ybR_Enmwmyk68wynfg2-37" value="return" style="html=1;verticalAlign=bottom;endArrow=open;dashed=1;endSize=8;curved=0;rounded=0;exitX=0;exitY=1;exitDx=0;exitDy=-5;exitPerimeter=0;" edge="1" parent="1" source="2ybR_Enmwmyk68wynfg2-35" target="7baba1c4bc27f4b0-3">
          <mxGeometry relative="1" as="geometry">
            <mxPoint x="600" y="550" as="sourcePoint" />
            <mxPoint x="520" y="550" as="targetPoint" />
          </mxGeometry>
        </mxCell>
        <mxCell id="2ybR_Enmwmyk68wynfg2-53" value="Note" style="shape=note;whiteSpace=wrap;html=1;size=14;verticalAlign=top;align=left;spacingTop=-6;rounded=0;shadow=0;comic=0;labelBackgroundColor=none;strokeWidth=1;fontFamily=Verdana;fontSize=12" vertex="1" parent="1">
          <mxGeometry x="600" y="30" width="90" height="35" as="geometry" />
        </mxCell>
      </root>
    </mxGraphModel>
  </diagram>
</mxfile>
